# xmcd
#
# Track frame offsets:
#	150
#	12469
#	24665
#	34673
#	45083
#	57052
#	70770
#	82683
#	94126
#	107882
#	117986
#	130507
#
# Disc length: 1891 seconds
#
# Revision: 0
# Processed by: cddbd v1.5.2PL0 Copyright (c) Steve Scherf et al.
# Submitted via: EasyCDDAExtractor 11.5.3.1
#
DISCID=8907610c
DTITLE=Various Artist - The Best of Classic Country Vol 3
DYEAR=2006
DGENRE=Country
TTITLE0=Patsy Cline - Crazy
TTITLE1=Hank Williams - Your Cheatin' Heart
TTITLE2=Loretta Lynn - You Ain't Woman Enough To Take My Man
TTITLE3=George Jones - Why Baby Why
TTITLE4=Loretta Lynn and Conway Twitty - After the Fire Is Gone
TTITLE5=Kenny Rogers - Ruby, Don't Take Your Love To Town
TTITLE6=Loretta Lynn and Ernest Tubb - Sweet Thang
TTITLE7=Donna Fargo - The Happiest Girl in the Whole U.S.A.
TTITLE8=Tom T. Hall - Ballad of Forty Dollars
TTITLE9=Dave Dudley - Six Days on the Road
TTITLE10=Johnny Cash - Folsom Prison Blues
TTITLE11=Willie Nelson and Family - On the Road Again (live)
EXTD=
EXTT0=
EXTT1=
EXTT2=
EXTT3=
EXTT4=
EXTT5=
EXTT6=
EXTT7=
EXTT8=
EXTT9=
EXTT10=
EXTT11=
PLAYORDER=
